<?xml version="1.0" encoding="utf-8"?>
<!-- Generator: Adobe Illustrator 18.1.0, SVG Export Plug-In . SVG Version: 6.00 Build 0)  -->
<svg version="1.1" id="Layer_1" xmlns="http://www.w3.org/2000/svg" xmlns:xlink="http://www.w3.org/1999/xlink" x="0px" y="0px"
	 viewBox="0 0 1024 768" enable-background="new 0 0 1024 768" xml:space="preserve">
<g>
	<g>
		<path fill="#FFFFFF" d="M60,321.7L89,399.2l31.7-11.8l14.7,39l-31.7,11.8L148,556.1l-44.5,16.8L0.8,299.4l85.4-32l14.7,39
			L60,321.7z"/>
		<path fill="#FFFFFF" d="M252.5,526.7c-34.6,8.9-63.4-7.6-74.1-49.8l-56-221.6l45.3-11.5l55.8,219.7c4.7,18.1,11.8,24.4,19.4,22.5
			c7.6-1.8,10.5-10.7,6-28.5l-55.8-220l44.8-11.3l56,221.6C304.6,489.8,286.8,518.1,252.5,526.7z"/>
		<path fill="#FFFFFF" d="M456.2,492.7l-9.4-292l47.7-1.6l9.2,292L456.2,492.7z"/>
		<path fill="#FFFFFF" d="M403.6,496.9l40.9-5l-0.5-19.9l-45-120.7c10-13.6,14.9-39.3,11.5-66.5c-5.8-46.9-34.8-78.8-67.8-74.6
			l-53.7,6.8L325,506.8l46.4-5.8l-15.7-124.9l3.7-0.5L403.6,496.9z M354.9,334l-4.2,0.5l-10.5-84.1l4.2-0.5
			c6.8-0.8,16,13.6,19.4,40.6C366.9,317,361.7,333.2,354.9,334z"/>
		<path fill="#FFFFFF" d="M523.5,490.6l13.6-291.7l86.9,4.2l-1.8,41.6l-40.3-2.1l-3.9,82.8l32.5,1.6l-1.8,41.6l-32.5-1.6l-3.9,84.1
			l44,2.1l-1.8,41.6L523.5,490.6z"/>
		<path fill="#FFFFFF" d="M679.1,507.1c-35.4-5.5-55.3-32-48.5-74.9l35.6-225.8l46.1,7.3l-35.1,223.9c-2.9,18.6,1.3,27,8.9,28.3
			c7.6,1.3,13.9-5.8,16.8-23.8l35.4-224.4l45.6,7.1l-35.6,225.8C741.4,493.7,713.9,512.6,679.1,507.1z"/>
		<path fill="#FFFFFF" d="M778.1,527.5c-13.6-3.7-22-13.1-24.6-21.2l11.8-49.5c-0.3,10,4.7,21.2,14.4,23.8
			c11,2.9,17.3-4.7,21.5-19.9c5-18.1,5.2-34,2.9-70.7c-3.4-42.2-2.6-66.3,4.7-93.5c10.5-39,36.1-58.9,64.4-51.6
			c12.3,3.4,20.2,11,21.7,16.2l-13.1,44c-0.8-5.5-5.2-12.3-11.5-13.9c-6.5-1.8-13.1,3.1-16.2,15.2c-4.2,15.5-4.5,34-2.4,58.1
			c3.1,48.2,3.9,79.4-3.4,106.3C836.2,515.5,810.8,536.2,778.1,527.5z"/>
		<path fill="#FFFFFF" d="M841.2,542.2l100.3-274.5l81.7,29.9l-14.4,39l-38-13.9l-28,78l30.6,11.3l-14.4,39l-30.6-11.3l-28.8,79.1
			l41.4,15.2l-14.4,39L841.2,542.2z"/>
	</g>
	<g>
		<path fill="#FFFFFF" d="M138.3,625.7l4.2,11l16-6l4.2,11l-16,6l8.4,21.7l-13.6,5.2L120.7,620l32.7-12.3l4.2,11L138.3,625.7z"/>
		<path fill="#FFFFFF" d="M216.3,648.8l-8.1-10.2l-18.3,5.8l-0.8,13.1l-12.8,3.9l4.5-63.1l9.4-2.9l39.5,49.5L216.3,648.8z
			 M194.3,619.4c-0.5-0.8-1-1.6-1.8-2.4c-0.5-0.8-1.3-1.8-1.8-2.6h-0.3c0,1,0,2.1,0,3.1s0,2.1,0,2.9l-0.5,12.6l11.8-3.7L194.3,619.4
			z"/>
		<path fill="#FFFFFF" d="M272.4,615.5c0.8,2.6,0.8,5.2,0.3,7.9c-0.5,2.4-1.3,4.7-2.9,6.5c-1.3,1.8-3.1,3.7-5.2,5
			c-2.1,1.3-4.5,2.4-7.3,3.1l-21.5,5.2l-14.1-56.8l19.1-4.7c2.4-0.5,4.5-0.8,6.5-0.5c2.1,0.3,4.2,0.8,6,1.6c1.8,0.8,3.4,2.1,4.7,3.9
			c1.3,1.6,2.4,3.7,2.9,6c0.3,0.8,0.3,1.8,0.3,2.6s0,2.1-0.3,2.9c-0.3,1-0.5,1.8-0.8,2.6c-0.3,0.8-1,1.6-1.6,2.1
			c1.3,0,2.6,0.5,3.9,1c1.3,0.8,2.9,1.6,3.9,2.6c1.3,1,2.4,2.4,3.4,3.9C270.8,612.1,271.8,613.7,272.4,615.5z M248.8,596.7
			c-0.5-2.1-1.6-3.4-3.1-3.9c-1.6-0.5-3.1-0.8-4.7-0.3l-4.5,1l2.9,11.5l4.5-1c1.6-0.5,2.9-1.3,3.9-2.4
			C249.1,600.3,249.3,598.8,248.8,596.7z M259,618.7c-0.5-2.6-1.8-4.2-3.9-5c-2.1-0.8-4.2-1-6.3-0.5l-6.5,1.6l3.7,14.7l6.5-1.6
			c1-0.3,2.1-0.8,2.9-1.3c1-0.5,1.8-1.3,2.4-2.1c0.5-0.8,1-1.6,1.3-2.6C259.3,621,259.3,620,259,618.7z"/>
		<path fill="#FFFFFF" d="M318.7,624.9l-19.9-19.6l-5,1l4.5,22.5l-13.4,2.6l-11-57.4l21.5-4.2c2.4-0.5,5-0.5,7.3,0
			c2.4,0.3,4.5,1,6.5,2.4c2.1,1,3.7,2.6,5.2,4.7c1.3,2.1,2.4,4.2,2.9,7.1c0.5,3.4,0.3,6.5-0.8,9.4c-1.3,2.9-2.9,5-5.2,6.8l23.3,22.3
			L318.7,624.9z M303.8,586.2c-0.5-2.1-1.6-3.7-3.1-4.5s-3.4-1-5.2-0.5l-6,1l2.4,12.8l6-1c1.8-0.3,3.4-1,4.7-2.4
			C303.8,590.4,304.1,588.5,303.8,586.2z"/>
		<path fill="#FFFFFF" d="M338.9,621.5l-8.6-57.9l14.1-2.1l8.6,57.9L338.9,621.5z"/>
		<path fill="#FFFFFF" d="M423,624.7c-0.3,0.3-0.5,0.3-1,0.3c-0.3,0-0.8,0-1,0c-2.9,0.3-5.8,0.3-8.1-0.3c-2.6-0.5-5.2-1.3-8.1-2.6
			c-2.9-1.3-5.5-2.6-8.1-3.7s-4.7-2.1-6.5-2.6c-3.7,0-7.1-0.8-10.5-1.8c-3.4-1.3-6.5-2.9-9.4-5.2c-2.9-2.4-5.2-5.2-7.1-8.6
			c-1.8-3.4-3.1-7.3-3.4-11.5c-0.5-4.7,0-8.9,1.3-12.8c1.3-3.9,3.4-7.3,6-10.5c2.6-2.9,5.8-5.2,9.4-7.1c3.7-1.8,7.3-2.9,11.5-3.4
			c3.9-0.5,7.9,0,11.8,0.8c3.9,1,7.3,2.6,10.7,5c3.1,2.4,5.8,5.2,8.1,8.9c2.1,3.7,3.4,7.6,3.9,12.3c0.3,3.4,0.3,6.5-0.5,9.4
			c-0.8,3.1-1.8,5.8-3.1,8.4c-1.6,2.6-3.1,4.7-5.2,6.5s-4.2,3.4-6.5,4.5v0.3c1,0,1.8,0.3,2.9,0.5c1,0.3,2.4,0.8,4.5,1.6
			c1.8,0.8,3.4,1,5.2,1.3c1.8,0.3,3.1,0.3,4.5,0c1,0,2.1-0.3,2.9-0.5s1.8-0.5,2.9-1L423,624.7z M407.5,583.6c-0.3-2.6-1-5.2-2.1-7.3
			c-1.3-2.1-2.6-3.9-4.5-5.2c-1.8-1.3-3.7-2.4-5.8-3.1c-2.1-0.5-4.2-0.8-6.3-0.5c-2.1,0.3-4.2,0.8-6.3,1.8c-2.1,1-3.7,2.4-5,4.2
			c-1.3,1.8-2.4,3.7-3.1,6c-0.8,2.4-0.8,4.7-0.5,7.6c0.3,2.6,1,5,2.1,7.1c1,2.1,2.6,3.9,4.5,5.2c1.8,1.3,3.7,2.4,5.8,3.1
			c2.1,0.8,4.2,0.8,6.5,0.5c2.1-0.3,4.2-0.8,6-1.8c1.8-1,3.7-2.4,5-4.2c1.3-1.8,2.4-3.7,3.1-6C407.5,588.5,407.8,586.2,407.5,583.6z
			"/>
		<path fill="#FFFFFF" d="M483.2,588.3c0.3,3.1-0.3,6.3-1.6,8.9c-1.3,2.6-2.9,5-5.2,6.8c-2.1,1.8-4.7,3.4-7.9,4.7
			c-3.1,1-6.3,1.8-9.7,2.1c-3.4,0.3-6.8-0.3-10-1c-3.1-0.8-5.8-2.1-8.1-3.9c-2.4-1.8-4.2-3.9-5.8-6.5c-1.6-2.6-2.4-5.5-2.4-8.6
			l-1.8-38.5l14.1-0.8l1.8,37.2c0.3,2.9,1.3,5.5,3.4,7.1c2.1,1.8,5,2.6,8.4,2.4c3.4-0.3,6-1.3,8.1-3.1c2.1-1.8,2.9-4.5,2.9-7.3
			l-1.8-37.2l13.9-0.5L483.2,588.3z"/>
		<path fill="#FFFFFF" d="M494.7,608.2v-58.4h34v11.5h-19.9v11.5h16.2v11.8h-16.2v11.8h22.5v11.5L494.7,608.2z"/>
		<path fill="#FFFFFF" d="M613.1,583c-0.3,4.5-1.3,8.6-3.4,12c-1.8,3.4-4.5,6.3-7.3,8.6c-3.1,2.4-6.5,3.9-10.2,5.2
			c-3.9,1-7.9,1.6-12,1.3l-19.6-1.3l3.7-58.4l19.6,1.3c4.2,0.3,8.1,1.3,11.8,2.9c3.7,1.6,6.8,3.7,9.7,6.3c2.9,2.6,4.7,5.8,6.3,9.7
			C612.8,574.4,613.4,578.3,613.1,583z M598.9,582c0.3-2.9-0.3-5.5-1-7.6c-0.8-2.1-2.1-3.9-3.7-5.5c-1.6-1.6-3.4-2.6-5.8-3.7
			c-2.1-0.8-4.7-1.3-7.1-1.6l-4.5-0.3l-2.1,34l4.5,0.3c2.6,0.3,5,0,7.3-0.5c2.4-0.5,4.5-1.6,6-2.9c1.8-1.3,3.1-3.1,4.5-5
			C598.2,587.2,598.7,584.9,598.9,582z"/>
		<path fill="#FFFFFF" d="M619.9,613.2l6.5-58.1l33.8,3.7l-1.3,11.5l-19.6-2.1l-1.3,11.5l16.2,1.8l-1.3,11.8l-16.2-1.8l-1.3,11.8
			l22.3,2.6l-1.3,11.5L619.9,613.2z"/>
		<path fill="#FFFFFF" d="M729.4,610.8c-0.5,2.9-1.6,5.2-2.9,7.3s-3.1,3.7-5.2,5c-2.1,1.3-4.5,2.1-6.8,2.4c-2.6,0.3-5.2,0.3-7.9-0.3
			l-21.7-3.9l10.2-57.6l19.4,3.4c2.4,0.5,4.5,1,6.3,2.4c1.8,1,3.4,2.4,4.7,3.9c1.3,1.6,2.4,3.4,2.9,5.5c0.5,2.1,0.5,4.2,0.3,6.5
			c-0.3,0.8-0.5,1.8-0.8,2.6c-0.3,1-0.8,1.8-1.3,2.6c-0.5,0.8-1.3,1.6-1.8,2.1c-0.8,0.5-1.6,1-2.4,1.3c1,0.5,2.1,1.6,3.1,2.6
			c1,1,1.8,2.6,2.6,3.9c0.8,1.6,1.3,3.1,1.6,4.7C729.9,607.4,729.9,609,729.4,610.8z M716,608.4c0.5-2.6,0-4.5-1.6-6
			c-1.6-1.6-3.4-2.6-5.5-2.9l-6.8-1.3l-2.6,14.9l6.5,1.3c1,0.3,2.1,0.3,3.1,0c1,0,2.1-0.5,2.9-0.8c0.8-0.5,1.6-1,2.4-2.1
			C715.2,610.8,715.8,609.8,716,608.4z M715.8,584.1c0.3-2.1,0-3.7-1-5c-1-1-2.6-1.8-4.2-2.1l-4.5-0.8l-2.1,11.5l4.5,0.8
			c1.6,0.3,3.1,0,4.7-0.5C714.4,587.5,715.2,586.2,715.8,584.1z"/>
		<path fill="#FFFFFF" d="M735.4,630.7l12.3-57.1l13.9,3.1l-12.3,57.1L735.4,630.7z"/>
		<path fill="#FFFFFF" d="M760.8,636.2l14.4-56.6l33,8.4l-2.9,11.3l-19.4-5l-2.9,11.3l15.7,3.9l-2.9,11.5l-15.7-3.9l-2.9,11.3
			l21.7,5.5l-2.9,11.3L760.8,636.2z M796.2,579.1c-2.9-1.6-5.5-3.1-7.6-5c-2.4-1.6-4.5-3.7-6.8-6.3l4.7-8.6c1,1.6,2.1,3.1,3.7,4.7
			c1.3,1.6,2.9,2.9,4.5,4.5c1.6,1.6,3.1,2.6,4.7,3.7c1.6,1,3.1,2.1,4.7,2.9L796.2,579.1z"/>
		<path fill="#FFFFFF" d="M836,657.7l-8.1-26.7l-4.7-1.6l-6.8,22l-13.1-4.2l17.5-55.8l20.7,6.5c2.4,0.8,4.5,1.8,6.5,3.4
			c1.8,1.6,3.4,3.1,4.7,5.2c1.3,1.8,2.1,4.2,2.4,6.5c0.3,2.4,0,5-0.8,7.6c-1,3.4-2.9,6-5.2,7.9s-5,3.1-7.9,3.4l10,30.4L836,657.7z
			 M841.2,616.6c0.8-2.1,0.5-3.9-0.8-5.2c-1.3-1.3-2.6-2.6-4.5-3.1l-5.8-1.8l-3.9,12.6l5.8,1.8c1.8,0.5,3.4,0.5,5.2,0
			C839.1,620.2,840.4,618.7,841.2,616.6z"/>
		<path fill="#FFFFFF" d="M854.3,664l21-54.7l32,12l-4.2,11l-18.6-7.1l-4.2,11l15.2,5.8l-4.2,11l-15.2-5.8l-4.2,11l21,8.1l-4.2,11
			L854.3,664z"/>
	</g>
	<g>
		<path fill="#FFFFFF" d="M471.7,150.4L470.4,92l14.1-0.3l1,46.4l23.6-0.5l0.3,12.3L471.7,150.4z"/>
		<path fill="#FFFFFF" d="M545.8,150.4l-4.5-12.3l-19.1-0.3l-4.7,12l-13.4-0.3l24.1-58.4l9.7,0.3l22,59.4L545.8,150.4z M534,115.6
			c-0.3-0.8-0.5-1.8-0.8-2.9s-0.5-2.1-0.8-3.1h-0.3c-0.3,1-0.5,2.1-1,3.1c-0.5,1-0.8,2.1-1,2.9l-4.5,11.8l12.3,0.3L534,115.6z"/>
	</g>
</g>
</svg>
